<svg width="464.4" height="214.88898194669193" viewBox="0 0 350 161.95336710022002" class="looka-1j8o68f"><defs id="SvgjsDefs2736"></defs><g id="SvgjsG2737" featurekey="7KWit6-0" transform="matrix(1.4636229079356493,0,0,1.4636229079356493,101.83484441437272,-36.249627176591204)" fill="#4ecca3"><path xmlns="http://www.w3.org/2000/svg" d="M53.2,53.6c0,0,33.8-2.3,43.1-26.1C96.3,27.5,110.3,53.6,53.2,53.6z M56.8,55c37.7,11.1,34.6-6.6,34.6-6.6  C81.9,56.2,56.8,55,56.8,55z M56.2,56.7c27.9,18,29.6,2.9,29.6,2.9C76.2,63.7,56.2,56.7,56.2,56.7z M55.8,58.7  c16.1,19.7,20.9,9.1,20.9,9.1C68.7,68.4,55.8,58.7,55.8,58.7z M54.9,60.9c6.2,16.6,11.7,10.7,11.7,10.7  C61.3,70.3,54.9,60.9,54.9,60.9z M46.8,53.6c0,0-33.8-2.3-43.1-26.1C3.7,27.5-10.4,53.6,46.8,53.6z M8.5,48.4c0,0-3.1,17.7,34.6,6.6  C43.1,55,18,56.2,8.5,48.4z M14.1,59.7c0,0,1.7,15.1,29.6-2.9C43.7,56.7,23.7,63.7,14.1,59.7z M23.3,67.7c0,0,4.8,10.6,20.9-9.1  C44.2,58.7,31.2,68.4,23.3,67.7z M33.3,71.6c0,0,5.5,5.9,11.7-10.7C45,60.9,38.7,70.3,33.3,71.6z"></path></g><g id="SvgjsG2738" featurekey="ewgXDI-0" transform="matrix(3.429355363241717,0,0,3.429355363241717,-6.44718888416402,92.68038451110277)" fill="#393e46"><path d="M6.18 6.800000000000001 c2.22 0 3.56 1.26 3.56 3.6 l0 2.52 c0 2.14 -1.32 3.58 -3.56 3.58 l-1.68 0 l0 3.32 c0 0.1 -0.08 0.18 -0.18 0.18 l-2.3 0 c-0.08 0 -0.14 -0.08 -0.14 -0.18 l0 -12.84 c0 -0.1 0.06 -0.18 0.14 -0.18 l4.16 0 z M7.12 12.32 l0 -1.32 c0 -1.38 -0.64 -1.52 -2.04 -1.52 l-0.58 0 l0 4.4 l0.58 0 c1.1 0 2.04 -0.2 2.04 -1.56 z M8.54 12.780000000000001 l0 -2.5 c0 -2.2 -1.7 -2.38 -2.62 -2.38 l-2.7 0 c-0.04 0 -0.12 0.06 -0.12 0.12 l0 10.76 c0 0.14 0.24 0.14 0.24 0 l0 -3.4 l2.4 0 c1.76 0 2.8 -0.62 2.8 -2.6 z M3.34 8.16 l2.58 0 c2.22 0 2.36 1.46 2.36 2.12 l0 2.5 c0 2.04 -1.28 2.32 -2.54 2.32 l-2.4 0 l0 -6.94 z M12.719999999999999 20 c-0.1 0 -0.16 -0.08 -0.16 -0.18 l0 -12.84 c0 -0.1 0.06 -0.18 0.16 -0.18 l2.28 0 c0.1 0 0.18 0.08 0.18 0.18 l0 12.84 c0 0.1 -0.08 0.18 -0.18 0.18 l-2.28 0 z M13.76 8 l0 10.78 c0 0.18 0.22 0.18 0.22 0 l0 -10.78 c0 -0.14 -0.22 -0.14 -0.22 0 z M24.42 6.800000000000001 l2.28 0 c0.12 0 0.2 0.12 0.16 0.26 l-2.6 5.86 l3.14 6.84 c0.06 0.12 -0.02 0.24 -0.14 0.24 l-2.26 0 c-0.08 0 -0.12 -0.02 -0.14 -0.1 l-2.2 -4.68 l-2.2 4.68 c-0.06 0.1 -0.08 0.1 -0.16 0.1 l-2.28 0 c-0.12 0 -0.2 -0.12 -0.14 -0.24 l3.12 -6.84 l-2.58 -5.86 c-0.04 -0.14 0.04 -0.26 0.16 -0.26 l2.32 0 c0.08 0 0.12 0.06 0.16 0.1 l1.6 3.56 l1.62 -3.56 c0.02 -0.04 0.08 -0.1 0.14 -0.1 z M25.6 18.82 c0.06 0.1 0.28 0.06 0.2 -0.12 l-3 -5.84 l2.42 -4.76 c0.06 -0.12 -0.06 -0.28 -0.2 -0.14 l-2.36 4.64 l-2.38 -4.64 c-0.08 -0.14 -0.36 -0.04 -0.26 0.14 l2.48 4.76 l-3.02 5.84 c-0.06 0.18 0.18 0.22 0.22 0.12 l2.96 -5.7 z M30.34 20 c-0.1 0 -0.16 -0.08 -0.16 -0.18 l0 -12.84 c0 -0.1 0.06 -0.18 0.16 -0.18 l6.8 0 c0.1 0 0.18 0.08 0.18 0.18 l0 2.14 c0 0.1 -0.08 0.18 -0.18 0.18 l-4.32 0 l0 2.72 l3.36 0 c0.1 0 0.16 0.08 0.16 0.18 l0 2.18 c0 0.1 -0.06 0.18 -0.16 0.18 l-3.36 0 l0 2.94 l4.32 0 c0.1 0 0.18 0.08 0.18 0.18 l0 2.14 c0 0.1 -0.08 0.18 -0.18 0.18 l-6.8 0 z M31.34 8.06 l0 10.64 c0 0.12 0.08 0.16 0.16 0.16 l4.6 0 c0.18 0 0.14 -0.24 0 -0.24 l-4.5 0 l0 -5.22 l3.68 0 c0.12 0 0.12 -0.28 0 -0.28 l-3.68 0 l0 -4.96 l4.5 0 c0.14 0 0.18 -0.26 0 -0.26 l-4.6 0 c-0.08 0 -0.16 0.06 -0.16 0.16 z M43.14 6.800000000000001 c0.1 0 0.18 0.08 0.18 0.18 l0 10.5 l4.32 0 c0.1 0 0.18 0.08 0.18 0.18 l0 2.16 c0 0.1 -0.08 0.18 -0.18 0.18 l-6.78 0 c-0.1 0 -0.16 -0.08 -0.16 -0.18 l0 -12.84 c0 -0.1 0.06 -0.18 0.16 -0.18 l2.28 0 z M41.9 8.02 l0 10.76 c0 0.04 0.04 0.1 0.12 0.1 l4.62 0 c0.16 0 0.16 -0.26 0 -0.26 l-4.52 0 l0 -10.6 c0 -0.14 -0.22 -0.16 -0.22 0 z M52.32 6.92 l2.2 8.28 l2.26 -8.28 c0.04 -0.06 0.08 -0.12 0.16 -0.12 l2.28 0 c0.12 0 0.2 0.1 0.16 0.22 l-3.46 12.86 c-0.04 0.08 -0.08 0.12 -0.16 0.12 l-2.48 0 c-0.06 0 -0.12 -0.04 -0.14 -0.12 l-3.46 -12.86 c-0.02 -0.12 0.06 -0.22 0.18 -0.22 l2.3 0 c0.08 0 0.12 0.06 0.16 0.12 z M54.480000000000004 18.62 l-3.34 -10.66 c-0.06 -0.16 -0.28 -0.06 -0.22 0.06 l3.32 10.68 c0.08 0.3 0.4 0.32 0.5 0 l3.2 -10.68 c0.04 -0.12 -0.18 -0.2 -0.22 -0.06 z M64.66 6.92 c0.02 -0.06 0.06 -0.12 0.14 -0.12 l2.48 0 c0.08 0 0.12 0.06 0.14 0.12 l3.46 12.86 c0.02 0.12 -0.06 0.22 -0.18 0.22 l-2.28 0 c-0.06 0 -0.12 -0.04 -0.14 -0.12 l-0.78 -2.8 l-2.92 0 l-0.76 2.8 c-0.02 0.08 -0.06 0.12 -0.14 0.12 l-2.3 0 c-0.12 0 -0.2 -0.1 -0.18 -0.22 z M65.22 14.6 l1.66 0 l-0.86 -3.02 z M68.3 15.780000000000001 l0.92 3 c0.04 0.12 0.26 0.1 0.2 -0.06 l-3.2 -10.64 c-0.06 -0.26 -0.4 -0.28 -0.46 0 l-3.1 10.64 c-0.06 0.14 0.16 0.2 0.22 0.08 l0.88 -3.02 l4.54 0 z M63.82 15.52 l2.18 -7.36 l2.22 7.36 l-4.4 0 z M80.03999999999999 15.379999999999999 l0 -8.4 c0 -0.1 0.08 -0.18 0.18 -0.18 l2.28 0 c0.1 0 0.18 0.08 0.18 0.18 l0 9.04 c0 2.88 -1.58 4.18 -4.56 4.18 c-2.82 0 -4.58 -1.12 -4.58 -4.18 l0 -9.04 c0 -0.1 0.08 -0.18 0.18 -0.18 l2.3 0 c0.1 0 0.18 0.08 0.18 0.18 l0 8.4 c0 1.74 0.98 2.12 1.8 2.12 l0.24 0 c1.24 0 1.8 -0.84 1.8 -2.12 z M74.78 8.08 l0 7.78 c0 1.8 1.22 3.1 3.12 3.1 l0.5 0 c1.9 0 3.14 -1.36 3.14 -3.1 l0 -7.78 c0 -0.18 -0.24 -0.2 -0.24 0 l0 7.78 c0 1.64 -1.18 2.84 -2.9 2.84 l-0.5 0 c-1.68 0 -2.88 -1.08 -2.88 -2.84 l0 -7.78 c0 -0.18 -0.24 -0.18 -0.24 0 z M88.72 6.800000000000001 c0.1 0 0.18 0.08 0.18 0.18 l0 10.5 l4.32 0 c0.1 0 0.18 0.08 0.18 0.18 l0 2.16 c0 0.1 -0.08 0.18 -0.18 0.18 l-6.78 0 c-0.1 0 -0.16 -0.08 -0.16 -0.18 l0 -12.84 c0 -0.1 0.06 -0.18 0.16 -0.18 l2.28 0 z M87.47999999999999 8.02 l0 10.76 c0 0.04 0.04 0.1 0.12 0.1 l4.62 0 c0.16 0 0.16 -0.26 0 -0.26 l-4.52 0 l0 -10.6 c0 -0.14 -0.22 -0.16 -0.22 0 z M98.25999999999999 9.3 l-2.84 0 c-0.1 0 -0.18 -0.08 -0.18 -0.18 l0 -2.14 c0 -0.1 0.08 -0.18 0.18 -0.18 l8.34 0 c0.1 0 0.18 0.08 0.18 0.18 l0 2.14 c0 0.1 -0.08 0.18 -0.18 0.18 l-2.84 0 l0 10.52 c0 0.1 -0.08 0.18 -0.18 0.18 l-2.3 0 c-0.1 0 -0.18 -0.08 -0.18 -0.18 l0 -10.52 z M102.53999999999999 7.9 l-6.04 0 c-0.14 0 -0.14 0.26 0 0.26 l2.96 0 l0 10.6 c0 0.14 0.26 0.14 0.26 0 l0 -10.6 l2.82 0 c0.2 0 0.18 -0.26 0 -0.26 z"></path></g></svg>